<svg xmlns="http://www.w3.org/2000/svg" width="83" height="83" viewBox="0 0 83 83">
  <g id="clap" transform="translate(-1751 -409)">
    <g id="Path_2102" data-name="Path 2102" transform="translate(1751 409)" fill="none">
      <path d="M41.5,0A41.5,41.5,0,1,1,0,41.5,41.5,41.5,0,0,1,41.5,0Z" stroke="none"/>
      <path d="M 41.5 2 C 36.16664886474609 2 30.99390029907227 3.044097900390625 26.12543869018555 5.103286743164062 C 21.42203903198242 7.0926513671875 17.19754028320312 9.941024780273438 13.56929016113281 13.56929016113281 C 9.941024780273438 17.19754028320312 7.0926513671875 21.42203903198242 5.103286743164062 26.12543869018555 C 3.044097900390625 30.99390029907227 2 36.16664886474609 2 41.5 C 2 46.83335113525391 3.044097900390625 52.00609970092773 5.103286743164062 56.87456512451172 C 7.0926513671875 61.57796478271484 9.941024780273438 65.80245971679688 13.56929016113281 69.43070983886719 C 17.19754028320312 73.05897521972656 21.42203903198242 75.9073486328125 26.12543869018555 77.89671325683594 C 30.99390029907227 79.95590209960938 36.16664886474609 81 41.5 81 C 46.83335113525391 81 52.00609970092773 79.95590209960938 56.87456512451172 77.89671325683594 C 61.57796478271484 75.9073486328125 65.80245971679688 73.05897521972656 69.43070983886719 69.43070983886719 C 73.05897521972656 65.80245971679688 75.9073486328125 61.57796478271484 77.89671325683594 56.87456512451172 C 79.95590209960938 52.00609970092773 81 46.83335113525391 81 41.5 C 81 36.16664886474609 79.95590209960938 30.99390029907227 77.89671325683594 26.12543869018555 C 75.9073486328125 21.42203903198242 73.05897521972656 17.19754028320312 69.43070983886719 13.56929016113281 C 65.80245971679688 9.941024780273438 61.57796478271484 7.0926513671875 56.87456512451172 5.103286743164062 C 52.00609970092773 3.044097900390625 46.83335113525391 2 41.5 2 M 41.5 0 C 64.41981506347656 0 83 18.58018493652344 83 41.5 C 83 64.41981506347656 64.41981506347656 83 41.5 83 C 18.58018493652344 83 0 64.41981506347656 0 41.5 C 0 18.58018493652344 18.58018493652344 0 41.5 0 Z" stroke="none" fill="#fff"/>
    </g>
    <g id="Icon_Thumbs_Up_Filled" data-name="Icon / Thumbs Up / Filled" transform="translate(1767 421)" opacity="0.998">
      <rect id="Box" width="53" height="53" fill="rgba(255,255,255,0)"/>
      <path id="Path_1994" data-name="Path 1994" d="M97,27h9.273V-2.4H97ZM148,.05a4.788,4.788,0,0,0-4.636-4.9H128.736l2.2-11.2.07-.784a3.8,3.8,0,0,0-1.02-2.6L127.53-22,112.277-5.854A4.929,4.929,0,0,0,110.909-2.4V22.1a4.788,4.788,0,0,0,4.636,4.9h20.864a4.61,4.61,0,0,0,4.265-2.989l7-17.273A5.082,5.082,0,0,0,148,4.95V.271l-.023-.025Z" transform="translate(-96 24)" fill="#fff" stroke="#fff" stroke-width="3"/>
    </g>
  </g>
</svg>
