<svg xmlns="http://www.w3.org/2000/svg" width="83" height="83" viewBox="0 0 83 83">
  <g id="clap" transform="translate(-1751 -409)">
    <g id="Path_2102" data-name="Path 2102" transform="translate(1751 409)" fill="none">
      <path d="M41.5,0A41.5,41.5,0,1,1,0,41.5,41.5,41.5,0,0,1,41.5,0Z" stroke="none"/>
      <path d="M 41.5 2 C 36.16664886474609 2 30.99390029907227 3.044097900390625 26.12543869018555 5.103286743164062 C 21.42203903198242 7.0926513671875 17.19754028320312 9.941024780273438 13.56929016113281 13.56929016113281 C 9.941024780273438 17.19754028320312 7.0926513671875 21.42203903198242 5.103286743164062 26.12543869018555 C 3.044097900390625 30.99390029907227 2 36.16664886474609 2 41.5 C 2 46.83335113525391 3.044097900390625 52.00609970092773 5.103286743164062 56.87456512451172 C 7.0926513671875 61.57796478271484 9.941024780273438 65.80245971679688 13.56929016113281 69.43070983886719 C 17.19754028320312 73.05897521972656 21.42203903198242 75.9073486328125 26.12543869018555 77.89671325683594 C 30.99390029907227 79.95590209960938 36.16664886474609 81 41.5 81 C 46.83335113525391 81 52.00609970092773 79.95590209960938 56.87456512451172 77.89671325683594 C 61.57796478271484 75.9073486328125 65.80245971679688 73.05897521972656 69.43070983886719 69.43070983886719 C 73.05897521972656 65.80245971679688 75.9073486328125 61.57796478271484 77.89671325683594 56.87456512451172 C 79.95590209960938 52.00609970092773 81 46.83335113525391 81 41.5 C 81 36.16664886474609 79.95590209960938 30.99390029907227 77.89671325683594 26.12543869018555 C 75.9073486328125 21.42203903198242 73.05897521972656 17.19754028320312 69.43070983886719 13.56929016113281 C 65.80245971679688 9.941024780273438 61.57796478271484 7.0926513671875 56.87456512451172 5.103286743164062 C 52.00609970092773 3.044097900390625 46.83335113525391 2 41.5 2 M 41.5 0 C 64.41981506347656 0 83 18.58018493652344 83 41.5 C 83 64.41981506347656 64.41981506347656 83 41.5 83 C 18.58018493652344 83 0 64.41981506347656 0 41.5 C 0 18.58018493652344 18.58018493652344 0 41.5 0 Z" stroke="none" fill="#fff"/>
    </g>
    <g id="clap-2" data-name="clap" transform="translate(1770.89 419.095)">
      <path id="Path_2163" data-name="Path 2163" d="M23.677,61.5h-.033a1.216,1.216,0,1,0,0,2.432h.033a1.216,1.216,0,1,0,0-2.432Zm0,0" transform="translate(-0.611 -1.676)" fill="#fff"/>
      <path id="Path_2164" data-name="Path 2164" d="M39.955,15.8a3.65,3.65,0,0,0-1.4.281v-.63a3.941,3.941,0,0,0-3.836-4.03,3.659,3.659,0,0,0-1.4.281V10.53a3.841,3.841,0,1,0-7.673,0v.321a3.65,3.65,0,0,0-1.4-.281,3.941,3.941,0,0,0-3.837,4.03V22.85a3.655,3.655,0,0,0-1.4-.281,3.941,3.941,0,0,0-3.837,4.03v.321a3.655,3.655,0,0,0-1.4-.281,3.942,3.942,0,0,0-3.836,4.03V45.08L6.721,42.567a3.7,3.7,0,0,0-4.879-.184,3.413,3.413,0,0,0-.722,4.28l5.53,9.577a5.191,5.191,0,0,0,3.264,2.441v2.536a1.216,1.216,0,0,0,1.216,1.216h7.062a1.216,1.216,0,1,0,0-2.432H12.345V57.61a1.216,1.216,0,0,0-1.216-1.216,2.749,2.749,0,0,1-2.374-1.371L3.226,45.447a.967.967,0,0,1,.208-1.226c.442-.382,1.091-.289,1.783.256l5.16,4.064a1.216,1.216,0,0,0,1.968-.956V30.669a1.532,1.532,0,0,1,1.4-1.6,1.531,1.531,0,0,1,1.4,1.6V43.29a1.216,1.216,0,0,0,2.432,0V26.6a1.531,1.531,0,0,1,1.4-1.6,1.531,1.531,0,0,1,1.4,1.6V43.29a1.216,1.216,0,1,0,2.432,0V31.516a1.531,1.531,0,0,1,1.4-1.6,1.531,1.531,0,0,1,1.4,1.6V43.29a1.216,1.216,0,1,0,2.432,0V35.9a1.416,1.416,0,1,1,2.809,0V50.669a7.271,7.271,0,0,1-3.627,5.926A1.216,1.216,0,0,0,26.7,57.61V60h-.126a1.216,1.216,0,1,0,0,2.432h1.342a1.216,1.216,0,0,0,1.216-1.216V58.245a9.478,9.478,0,0,0,4.174-7.576V46.364H38.4a1.216,1.216,0,0,0,1.216-1.216V42.176A9.478,9.478,0,0,0,43.791,34.6V19.825A3.941,3.941,0,0,0,39.955,15.8Zm1.4,18.8a7.272,7.272,0,0,1-3.627,5.926,1.216,1.216,0,0,0-.547,1.015v2.391H33.309V35.9a3.941,3.941,0,0,0-3.837-4.03,3.658,3.658,0,0,0-1.4.281v-.63a3.941,3.941,0,0,0-3.836-4.03,3.65,3.65,0,0,0-1.4.281V14.6a1.532,1.532,0,0,1,1.4-1.6,1.531,1.531,0,0,1,1.4,1.6v9.871a1.216,1.216,0,0,0,2.432,0V10.53a1.416,1.416,0,1,1,2.809,0V24.471a1.216,1.216,0,0,0,2.432,0V15.447a1.416,1.416,0,1,1,2.809,0v9.024a1.216,1.216,0,0,0,2.432,0V19.825a1.416,1.416,0,1,1,2.809,0Zm0,0" transform="translate(-0.018 -0.177)" fill="#fff"/>
      <path id="Path_2165" data-name="Path 2165" d="M16.776,2.449a1.216,1.216,0,0,0,1.216-1.216V1.216a1.216,1.216,0,1,0-2.432,0v.017A1.216,1.216,0,0,0,16.776,2.449Zm0,0" transform="translate(-0.424 0)" fill="#fff"/>
      <path id="Path_2166" data-name="Path 2166" d="M7.316,25.452a1.216,1.216,0,0,0,0-2.432h-6.1a1.216,1.216,0,0,0,0,2.432Zm0,0" transform="translate(0 -0.627)" fill="#fff"/>
      <path id="Path_2167" data-name="Path 2167" d="M8.766,15.721A1.216,1.216,0,1,0,10.486,14L6.172,9.687a1.216,1.216,0,0,0-1.72,1.72Zm0,0" transform="translate(-0.112 -0.254)" fill="#fff"/>
      <path id="Path_2168" data-name="Path 2168" d="M16.776,10.614A1.216,1.216,0,0,0,17.992,9.4V4.732a1.216,1.216,0,1,0-2.432,0V9.4A1.216,1.216,0,0,0,16.776,10.614Zm0,0" transform="translate(-0.424 -0.096)" fill="#fff"/>
    </g>
  </g>
</svg>
